# xmcd
#
# Track frame offsets: 
#        150
#        15990
#        37198
#        55428
#        81670
#        93818
#        110591
#        127553
#        142101
#        160169
#        181249
#        204137
#        224283
#        246556
#        265238
#        279974
#        296237
#
# Disc length: 4138 seconds
#
# Revision: 0
# Processed by: cddbd v1.5.2PL0 Copyright (c) Steve Scherf et al.
# Submitted via: ExactAudioCopy v0.99pb5
#
DISCID=f9102811
DTITLE=Various Artist - The Blues CD4 - USA Modern Bluesplayers
DYEAR=2009
DGENRE=Blues
TTITLE0=Taj Mahal - She Caught The Katy (And Left Me A Mule To Ride)
TTITLE1=Stevie Ray Vaughan - Tightrope
TTITLE2=Allman Brothers - Please Call Home
TTITLE3=Derek Trucks Band - Joyful Noise
TTITLE4=John Mayer - I'm Gonna Find Another You
TTITLE5=Sonny Landreth -  Hell At Home
TTITLE6=Rory Block - Gone Woman Blues
TTITLE7=Eric Bibb - The Way You Are
TTITLE8=Keb Mo -  Don't Try To Explain
TTITLE9=Dr John - Blues In The Night
TTITLE10=Joe Bonamassa -  Colour And Shape
TTITLE11=Jeff Healey Band - See The Light
TTITLE12=Robben Ford - Something For The Pain
TTITLE13=Robert Cray - Smoking Gun
TTITLE14=T-Model Ford - Nobody Gets Me Down
TTITLE15=Captain Beefheart and The Magic Band  Gimme Dat Harp Boy
TTITLE16=Canned Heat - Fannie Mae
EXTD=
EXTT0=
EXTT1=
EXTT2=
EXTT3=
EXTT4=
EXTT5=
EXTT6=
EXTT7=
EXTT8=
EXTT9=
EXTT10=
EXTT11=
EXTT12=
EXTT13=
EXTT14=
EXTT15=
EXTT16=
PLAYORDER=
